<svg xmlns="http://www.w3.org/2000/svg" xmlns:xlink="http://www.w3.org/1999/xlink" width="500" zoomAndPan="magnify" viewBox="0 0 375 374.999991" height="500" preserveAspectRatio="xMidYMid meet" version="1.0"><defs><clipPath id="58fa582988"><path d="M 17.25 0 L 357.75 0 C 362.324219 0 366.710938 1.816406 369.949219 5.050781 C 373.183594 8.289062 375 12.675781 375 17.25 L 375 357.75 C 375 362.324219 373.183594 366.710938 369.949219 369.949219 C 366.710938 373.183594 362.324219 375 357.75 375 L 17.25 375 C 12.675781 375 8.289062 373.183594 5.050781 369.949219 C 1.816406 366.710938 0 362.324219 0 357.75 L 0 17.25 C 0 12.675781 1.816406 8.289062 5.050781 5.050781 C 8.289062 1.816406 12.675781 0 17.25 0 Z M 17.25 0 " clip-rule="nonzero"/></clipPath><clipPath id="1910e1c620"><path d="M 36.753906 36.753906 L 338.253906 36.753906 L 338.253906 338.253906 L 36.753906 338.253906 Z M 36.753906 36.753906 " clip-rule="nonzero"/></clipPath></defs><g clip-path="url(#58fa582988)"><rect x="-37.5" width="450" fill="#000000" y="-37.499999" height="449.999989" fill-opacity="1"/></g><g clip-path="url(#1910e1c620)"><path fill="#ffffff" d="M 300.554688 36.753906 L 112.125 36.753906 C 91.347656 36.753906 74.441406 53.664062 74.441406 74.441406 L 74.441406 287.992188 L 43.035156 287.992188 C 39.566406 287.992188 36.753906 290.808594 36.753906 294.273438 L 36.753906 300.554688 C 36.753906 321.332031 53.664062 338.242188 74.441406 338.242188 L 237.746094 338.242188 C 258.523438 338.242188 275.433594 321.332031 275.433594 300.554688 L 275.433594 87 L 331.960938 87 C 335.429688 87 338.242188 84.1875 338.242188 80.722656 L 338.242188 74.441406 C 338.242188 53.664062 321.332031 36.753906 300.554688 36.753906 Z M 49.316406 300.554688 L 200.058594 300.554688 C 200.058594 310.242188 203.839844 318.996094 209.859375 325.679688 L 74.441406 325.679688 C 60.582031 325.679688 49.316406 314.410156 49.316406 300.554688 Z M 262.871094 74.441406 L 262.871094 300.554688 C 262.871094 314.410156 251.601562 325.679688 237.746094 325.679688 C 223.890625 325.679688 212.621094 314.410156 212.621094 300.554688 L 212.621094 294.273438 C 212.621094 290.808594 209.808594 287.992188 206.339844 287.992188 L 87 287.992188 L 87 74.441406 C 87 60.582031 98.269531 49.316406 112.125 49.316406 L 272.667969 49.316406 C 266.652344 56 262.871094 64.753906 262.871094 74.441406 Z M 275.433594 74.441406 C 275.433594 60.582031 286.699219 49.316406 300.554688 49.316406 C 314.410156 49.316406 325.679688 60.582031 325.679688 74.441406 Z M 275.433594 74.441406 " fill-opacity="1" fill-rule="nonzero"/></g><path fill="#ffffff" d="M 231.464844 124.6875 L 118.40625 124.6875 C 114.941406 124.6875 112.125 127.5 112.125 130.96875 C 112.125 134.4375 114.941406 137.25 118.40625 137.25 L 231.464844 137.25 C 234.933594 137.25 237.746094 134.4375 237.746094 130.96875 C 237.746094 127.5 234.933594 124.6875 231.464844 124.6875 Z M 231.464844 124.6875 " fill-opacity="1" fill-rule="nonzero"/><path fill="#ffffff" d="M 231.464844 162.375 L 118.40625 162.375 C 114.941406 162.375 112.125 165.1875 112.125 168.65625 C 112.125 172.121094 114.941406 174.9375 118.40625 174.9375 L 231.464844 174.9375 C 234.933594 174.9375 237.746094 172.121094 237.746094 168.65625 C 237.746094 165.1875 234.933594 162.375 231.464844 162.375 Z M 231.464844 162.375 " fill-opacity="1" fill-rule="nonzero"/><path fill="#ffffff" d="M 181.21875 200.058594 L 118.40625 200.058594 C 114.941406 200.058594 112.125 202.875 112.125 206.339844 C 112.125 209.808594 114.941406 212.621094 118.40625 212.621094 L 181.21875 212.621094 C 184.683594 212.621094 187.496094 209.808594 187.496094 206.339844 C 187.496094 202.875 184.683594 200.058594 181.21875 200.058594 Z M 181.21875 200.058594 " fill-opacity="1" fill-rule="nonzero"/></svg>